# xmcd
#
# Track frame offsets:
#	150
#	11890
#	34312
#	59912
#	78172
#	108327
#	150962
#	166975
#	187660
#	201455
#	225150
#	237500
#	252095
#	261995
#	288877
#	312817
#
# Disc length: 4401
#
# Revision: 1
# Processed by: cddbd v1.5.1PL0 Copyright (c) Steve Scherf et al.
# Submitted via: CDex 1.50
# Normalized: r0:DSETVAR1
#
DISCID=ce112f10
DTITLE=Various Artist - SALSA HEAT! CD1
DYEAR=2001
DGENRE=Salsa
TTITLE0=Ray Barretto - El Watusi
TTITLE1=Fania All-Stars - En Orbita
TTITLE2=Ricardo Marrero - Feel Like Makin' Love
TTITLE3=Joe Cuba Sextet - Bang Bang
TTITLE4=Ruben Blades - Plastico
TTITLE5=Eddie Palmieri - Azucar
TTITLE6=Willie Colon - Che Che Cole
TTITLE7=La Sonora Poncena - Cappucino
TTITLE8=Joe Bataan - Subway Joe
TTITLE9=Celia Cruz - Berimbau
TTITLE10=Yayo El Indio - Si Yo Encontrara Un Amor
TTITLE11=Tito Puente - Ran Kan Kan
TTITLE12=La Lupe - El Carbonero
TTITLE13=Mongo Santamaria - Mambo Mongo
TTITLE14=Orchestra Harlow - El Paso De Encarnacion
TTITLE15=Gilberto Cruz - Hot Pants
EXTD=YEAR: 2001
EXTT0=
EXTT1=
EXTT2=
EXTT3=
EXTT4=
EXTT5=
EXTT6=
EXTT7=
EXTT8=
EXTT9=
EXTT10=
EXTT11=
EXTT12=
EXTT13=
EXTT14=
EXTT15=
PLAYORDER=
